<svg xmlns="http://www.w3.org/2000/svg" xmlns:xlink="http://www.w3.org/1999/xlink" version="1.1" id="Your_Icon" x="0px" y="0px" width="100px" height="100px" viewBox="0 0 100 100" enable-background="new 0 0 100 100" xml:space="preserve">
<path fill-rule="evenodd" clip-rule="evenodd" d="M73.21,20.733c0.016-0.429,0.066-0.856,0.156-1.265  c0.699-3.145-0.846-5.304-2.865-7.458c-2.799-2.986-6.453-4.555-9.998-6.208c-1.688-0.788-3.85-0.573-5.797-0.788  c-1.685-0.186-3.372-0.451-5.06-0.463c-1.156-0.009-2.498,0.047-3.441,0.605c-4.596,2.719-8.808,5.938-11.136,10.949  c-0.682,1.464-1.12,3.13-1.258,4.74c-0.418,4.825,0.346,9.537,1.895,14.117c0.84,2.482,1.715,4.955,2.619,7.416  c0.266,0.722,0.686,1.387,1.165,2.337c-0.722,0.251-1.458,0.513-2.199,0.764c-1.031,0.351-1.809,0.669-1.8,2.151  c0.007,1.14-0.789,2.308-1.32,3.418c-0.105,0.219-0.625,0.283-0.969,0.339c-1.615,0.261-2.133,1.265-1.401,2.767  c0.102,0.208,0.21,0.409,0.318,0.611c1.002,1.87,0.977,1.849-0.814,3.162c-0.396,0.291-0.736,0.856-0.813,1.343  c-0.205,1.295-0.989,1.884-2.098,2.463c-3.217,1.675-6.395,3.436-9.498,5.314c-1.766,1.07-2.97,2.684-3.528,4.763  c-0.552,2.052-1.429,3.892-3.03,5.46c-0.911,0.896-1.59,2.377-1.71,3.658c-0.291,3.104-0.948,6.046-2.213,8.898  C6.972,93.077,7.075,96.541,7.306,100c24.58,0,49.156,0,73.736,0c0.139-1.14,0.342-2.275,0.4-3.418  c0.123-2.372,0.322-4.756,0.203-7.121c-0.127-2.502-0.273-5.047-1.49-7.359c-0.725-1.378-1.543-2.737-2.02-4.205  c-0.563-1.729-0.852-3.556-1.166-5.356c-0.65-3.729-2.438-6.706-5.67-8.729c-1.537-0.963-3.164-1.786-4.701-2.753  c-0.311-0.196-0.518-0.743-0.553-1.149c-0.059-0.669,0.244-1.408,0.072-2.024c-0.412-1.47,0.033-2.421,1.063-3.542  c0.896-0.979,1.398-2.437,1.746-3.769c0.373-1.421,0.748-2.541,2.35-3.039c1.018-0.316,1.955-1.013,2.82-1.678  c1.07-0.826,1.506-1.953,1.533-3.372c0.029-1.396,0.355-2.809,0.727-4.167c0.266-0.979,0.121-1.598-0.658-2.283  c-0.521-0.455-0.959-1.23-1.047-1.913c-0.492-3.76-0.018-9.18-1.594-12.652c-1.201-2.646-6.211-5.528-8.904-6.212  c-2.613-0.664-7.322,1.493-7.68,4.514c-0.633,5.358,6.543,10.238,10.836,11.824c1.734,0.641,7.928,2.118,8.271,3.939"/>
<path fill-rule="evenodd" clip-rule="evenodd" d="M65,20.696c-1.188-0.31-5.425-1.752-3.815,2.02  c1.235-0.398,2.603-0.151,3.919,0.19c1.789,0.464,2.047,0.653,2.87-1.261c-1.103,0.145-1.848-0.833-2.854-0.984"/>
<path fill-rule="evenodd" clip-rule="evenodd" d="M73.963,24.785c-0.012-0.032-0.023-0.064-0.034-0.097  c-0.172-0.517-0.247-1.067-0.276-1.613c-0.313-0.071-0.626-0.143-0.936-0.239c-1.765-0.551-2.013-0.752-2.928,1.12  c1.107-0.091,1.804,0.921,2.802,1.122l0.121-0.03c0.292,0.092,0.775,0.256,1.306,0.4C73.986,25.229,73.967,25.007,73.963,24.785z"/>
<path fill-rule="evenodd" clip-rule="evenodd" d="M68.917,24.167c-0.282,1.462,1.847,2.886,2.396,4.106  c0.346,0.768-0.445,2.254-1.468,1.708c0.091-0.144,0.225-0.408,0.329-0.534c-0.003-0.007-0.121,0.114-0.082,0.12  c0.44-0.129,0.598,0.13,0.63-0.44c0.023-0.415-0.139-0.849-0.22-1.252c-0.101-0.505-0.239-0.917-0.594-1.331  c-0.271-0.316-0.611-0.539-0.825-0.919c-0.25-0.445-0.25-0.851-0.25-1.375"/>
</svg>